<?xml version="1.0" encoding="utf-8"?>
<!-- Generator: Adobe Illustrator 26.0.3, SVG Export Plug-In . SVG Version: 6.00 Build 0)  -->
<svg version="1.1" id="Layer_1" xmlns="http://www.w3.org/2000/svg" xmlns:xlink="http://www.w3.org/1999/xlink" x="0px" y="0px"
	 viewBox="0 0 512 512" style="enable-background:new 0 0 512 512;" xml:space="preserve">
<style type="text/css">
	.st0{fill:#6BB899;}
	.st1{fill:#59B290;}
	.st2{fill:#055845;}
	.st3{fill:#4CA080;}
	.st4{fill:#065846;}
	.st5{fill:#076955;}
	.st6{fill:#09755F;}
	.st7{fill:#125F45;}
	.st8{fill:#08412A;}
	.st9{fill:#0E836D;}
	.st10{fill:#196A50;}
	.st11{fill:#0C4E37;}
	.st12{fill:#19694E;}
	.st13{fill:#075844;}
	.st14{fill:#06422B;}
	.st15{fill:#10846C;}
	.st16{fill:#8E4F3E;}
	.st17{fill:#4B9A87;}
	.st18{fill:#F7DEC0;}
	.st19{fill:#55B18F;}
	.st20{fill:#98493B;}
	.st21{fill:#632611;}
	.st22{fill:#632A19;}
	.st23{fill:#1F9078;}
	.st24{fill:#12725C;}
	.st25{fill:#066955;}
	.st26{fill:#F3DCBF;}
</style>
<g>
	<path class="st0" d="M312.5,275.7c16.3,9,32.7,18.1,49,27.1c0,6,0,12.1,0.1,18.1c0,2.1,0.5,4.2,0.8,6.2c0.8,0.3,1.6,0.5,2.4,0.8
		c5.7,2.8,9.6,0.5,9.7-5.7c0-3.6,0.3-7.2,0.4-10.8c1,0.3,2.1,0.4,3,0.9c10.3,5.7,20.5,11.5,30.8,17.2c2.3,1.3,4.9,2.2,7.3,3.2
		c0.2,0.2,0.3,0.4,0.3,0.6c-0.1,7.4-0.2,14.9-0.1,22.3c0,1,0.8,2.8,1.5,2.9c3.3,0.6,6.7,0.8,10.1,1.2c0.5-0.1,1-0.1,1.4-0.2
		c0.3-0.2,0.6-0.3,0.9-0.5c0,0,0.2-0.1,0.2-0.1c2.9-0.1,3.9-1.8,3.8-4.5c0-3.5,0-6.9,0.1-10.4c10.9,6.1,21.8,12.2,32.7,18.4
		c-7.7,4.4-15.4,8.9-23.1,13.3c-9.6,5.5-19.1,11.2-28.7,16.6c-11.1,6.2-22.3,12.2-33.4,18.4c-13.1,7.3-26.1,14.7-39.1,22
		c-17.3,9.7-34.5,19.4-51.9,29c-4.6,2.6-9.4,4.8-14,7.2c-1.5-0.6-3.1-0.9-4.5-1.7c-7.5-4.4-14.7-9-22.3-13.2
		c-16.4-9.2-33-18-49.3-27.2c-15.8-8.8-31.3-17.9-47.1-26.8c-14.6-8.2-29.2-16.1-43.8-24.2c-8.9-5-17.8-10.1-26.7-15.2
		c-7.5-4.3-15-8.5-22.5-12.8c-9.8-5.5-19.6-11-29.4-16.4c-2-1.1-4.3-1.7-6.6-2.5c0,3.8,0,7.8,0,11.9c-0.2-4.1-0.6-8.3-0.5-12.4
		c0-0.9,1.6-2,2.7-2.6c9.6-5.4,19.2-10.7,28.8-16.1c1.5-0.8,2.7-2,4.1-3.1c0.9,0.7,1.9,1.5,2.8,2.2c-5.9,6.3-0.2,16.9,6.3,21.7
		c0.3,4,0.7,8,0.8,12c0.1,5.8,0.7,6.5,6.6,6.3c1.9-0.6,3.8-1.1,5.7-1.7c0.2-2.3,0.4-4.6,0.7-6.8c1.6-0.1,3.2-0.1,4.8-0.2
		c0.3,2.2,0.3,4.6,1,6.7c1.2,3.4,2.1,8.5,4.4,9.4c4.6,1.8,10.1,1.2,15.2,1.6c3.7,0.7,6.9-0.4,10.4-1.7c8.8-3.3,10.8-5.9,10-15.6
		c-0.3-3.5-1.2-6.9-1.8-10.3c0.8-1.2,1.4-2.6,2.3-3.6c3.3-3.8,6.3-8.4,4.7-13.1c-1.2-3.3-1.4-6.5-2.2-9.7c-0.8-3.2-1.5-6.8-5.6-7.7
		c-0.8-0.3-1.6-0.6-2.3-1c-3.6-2.1-7.2-4.2-10.8-6.3c-1.6-2.5-3.2-5-4.8-7.5c6.2-3.6,12.3-7.3,18.5-10.8c8.6-4.9,17.3-9.6,26-14.4
		c1.6-0.9,3-2.2,4.5-3.3c2.2,1.5,4.5,3.1,6.7,4.6c-0.1,10.7-0.2,21.3-0.1,32c0,0.9,1.6,1.7,2.5,2.6c6,3.1,10.3,0.7,10.3-5.7
		c0-10,0-20.1,0-30.1c4.1-2.3,8.3-4.6,12.4-6.9c-3.1,7.4-1.5,11.6,4.5,14.2c6.7,2.9,14,2.2,20.8,4c0.3,2.6,0.6,5.2,0.9,7.9
		c3.5,1.1,7,2.3,10.5,3.4c1.6-0.2,3.3-0.5,4.9-0.7c5.3,0.4,6.1,5.4,8,8.7c3.2,5.4,5.4,11.4,8.2,17c0.5,1,2.3,1.4,3.5,2.1
		c-1.6,2.5-3.1,4.9-4.8,7.5c1.4,1,2.8,2,4.2,3c-2.8,2-5.6,3.9-8.3,5.9c-0.2,8.4-0.2,8.4,5.5,10.6c1.3,0.4,2.9,1.5,3.8,1.1
		c4.9-2.5,9.6-5.4,14.4-8.2c4.9,2.4,9.8,4.9,14.6,7.3c-0.1,0.7-0.1,1.5-0.2,2.2c-13.7,7.3-27.4,14.5-41,21.9c-1.1,0.6-1.3,2.8-2,4.3
		c-0.8,4.2,0.2,7.1,4.6,8.9c4.9,2.1,9.6,4.9,14.3,7.5c12.4,6.8,24.8,13.6,37.2,20.4c1.3-0.3,2.8-0.3,3.9-0.9
		c11-5.8,21.8-12.2,33-17.5c6-2.8,8.5-6.3,7.1-12.7c-1-0.9-1.8-1.9-2.9-2.5c-5.5-3-11.2-5.8-16.7-8.8c-6.8-3.8-13.6-7.8-20.4-11.6
		c-1.1-0.6-2.6-0.6-3.9-0.8c-0.1-3.5-0.2-7.1-0.3-10.6c3.9-2.2,7.8-4.3,11.6-6.5c5.6,3.1,11.2,6.2,16.9,9.2c1.9,1,3.9,1.6,5.9,2.3
		c7.8-3.2,8.5-4.5,6.6-12.4c-2.9-1.9-5.9-3.7-8.8-5.6c-1.5-1-2.9-2.1-4.3-3.2c1.5-1,3-2,4.5-3.1c-1.5-2.6-2.8-4.7-4.1-6.9
		c2.5,1.2,5.4,2,7.4,3.7c3.1,2.7,6.1,5.8,8.3,9.2c2,3.1,2.6,7,4.5,10.2c3.1,5.3,9.7,6.1,14.7,1.7c4.3-3.8,5.8-8.9,1.4-13.4
		c-2.9-3-5.9-5.9-9.1-8.7c-8.8-7.7-18.5-13.4-30.3-15.1c-0.4-1.1-0.6-2.3-1.2-3.2c-2.8-4.1-5.6-8.2-8.5-12.2
		C309.2,277.9,310.9,276.8,312.5,275.7z M360.6,396.7c0.9-0.1,1.9,0.1,2.6-0.3c12.4-6.7,24.8-13.3,37.1-20.1c5-2.8,5.5-4.5,3.8-10.4
		c-0.5-0.7-0.8-1.7-1.4-2.1c-5.7-3.4-11.4-6.7-17.1-9.9c-9.2-5.1-18.5-10.3-27.8-15.3c-3.4-1.8-8.9,0.5-10.2,3.9
		c-1.3,7.2-1.4,7.3,5,11c8.9,5.2,18.1,10,27.1,15c-0.8,0.7-1.5,1.5-2.4,2c-6,3.3-12.2,6.5-18.1,10c-2.6,1.5-6.4,2.5-5.7,6.9
		C353.2,393.9,353.3,394,360.6,396.7z M285.5,436.6c1,0,2.2,0.4,2.9,0c12.2-6.5,24.4-13,36.5-19.7c5.3-2.9,6.1-5.4,4.7-11.5
		c-2.1-3-7-5.4-9.1-4.3c-10,5.4-20.1,10.7-30,16.2c-2.6,1.5-4.8,1.8-7.5,0.3c-11.7-6.5-23.5-13-35.3-19.3c-3.7-2-8.3-0.1-10.3,3.8
		c0,1.4,0.1,2.7-0.1,4.1c-0.5,3.2,0.9,4.9,3.7,6.3C256,420.5,270.7,428.6,285.5,436.6z M216.3,397.6c7.2-2.4,9-5.9,6.5-12.6
		c-2.5-1.6-4.8-3.4-7.4-4.8c-8.2-4.7-16.4-9.4-24.6-14.1c7.9-4.4,15.8-8.7,23.7-13.1c3.6-2,4.3-7,1.8-10.5c-3.5-4.5-5.3-5.3-9.9-2.9
		c-9.7,5-19.3,10.1-28.9,15.4c-3.8,2.1-7.3,4.9-10.9,7.3c0,1.5,0.1,3-0.1,4.5c-0.3,2.8,0.6,4.2,3.3,5.5c7.7,4,15,8.6,22.5,12.8
		c7.6,4.3,15.3,8.5,23,12.8C215.5,398,216,397.7,216.3,397.6z M166.1,347.3c3.7,0,7.3,0.1,11,0c6-0.3,8.2-3.9,5.3-9
		c-2.1-3.6-4.6-7.4-7.9-9.6c-5.4-3.6-11.7-6-17.6-8.9c-4.4-2.2-9.1-3.2-13.8-1.6c-8.7,3-12.2,6.8-10.7,13.7c1.1,5,4.5,8.6,8.8,11.2
		C148.9,347.6,157.5,347.8,166.1,347.3z M208.8,302c6.2-0.4,10.8-0.6,15.4-1.1c5-0.5,6.4-3,4.5-7.7c-2.3-5.8-6.3-10.2-11.6-13.2
		c-8.1-4.6-16.5-9.1-26.2-8.3c-5.1,0.4-9.3,2.9-11.8,7.5c-2.5,4.7-0.1,8.8,2.5,12.4c3.2,4.5,7.8,7.2,13.1,8.3
		C199.8,301,205.1,301.5,208.8,302z"/>
	<path class="st1" d="M24.4,341c0-4.1,0-8.1,0-11.9c2.2,0.9,4.5,1.4,6.6,2.5c9.9,5.4,19.6,10.9,29.4,16.4c7.5,4.2,15,8.5,22.5,12.8
		c8.9,5.1,17.8,10.2,26.7,15.2c14.6,8.1,29.3,16.1,43.8,24.2c15.7,8.8,31.3,18,47.1,26.8c16.4,9.2,33,18,49.3,27.2
		c7.5,4.2,14.8,8.9,22.3,13.2c1.4,0.8,3,1.2,4.5,1.7c0,4.5-0.1,9-0.1,13.5c-8.7-4.7-17.5-9.3-26.1-14.1
		c-40.2-22.5-80.3-45.2-120.4-67.7C95.3,381.2,60.5,361.6,25.7,342C25.2,341.7,24.8,341.3,24.4,341z"/>
	<path class="st2" d="M172.1,152.7c0.7-1.2,1.5-2.4,2.2-3.5c4.9,2.7,9.8,5.4,14.7,8.2c9.1,5.2,18.2,10.4,27.4,15.5
		c2.8,1.6,5.8,2.7,8.7,4c0,0,0.1,0,0.1,0c0,12.4,0,24.8,0,37.2c0.5,0.1,1,0.3,1.6,0.4c2.7-4.4,5.5-8.8,8.2-13.1
		c1.5,0.6,3.1,1.1,4.5,1.9c8.9,5.3,17.8,10.6,26.8,15.9c0.9,0.5,2,0.7,3,1l0.1,0c0,7.4,0,14.9,0,22.3c0,1.3,0.5,2.5,0.8,3.8
		c-0.3,0.6-0.6,1.2-1,1.7c-2.4-1.2-4.8-2.3-7.2-3.5c-8.4-4.8-16.9-9.7-25.3-14.5c-3.8-2.1-7.6-4.3-11.4-6.4c-1-1-2.9-2.6-2.8-2.8
		c1.9-2.7-1-2.9-2-3.6c-1.8-1.3-3.8-2.2-5.8-3.3c-0.2-0.2-0.4-0.2-0.7-0.2c-7-4-14-8.1-21-12.1c3.1-1.4,3.8-4,1.8-7.1
		c-2.9-4.5-5.8-9-8.8-13.5c2.2-1.5,3.1-3,1-5.5c-2.4-3-4.5-6.3-6.6-9.5C177.6,161.6,174.9,157.1,172.1,152.7z"/>
	<path class="st3" d="M276.6,482.6c0-4.5,0.1-9,0.1-13.5c4.7-2.4,9.4-4.7,14-7.2c17.3-9.6,34.6-19.3,51.9-29
		c13.1-7.3,26-14.8,39.1-22c11.1-6.2,22.4-12.2,33.4-18.4c9.6-5.4,19.1-11.1,28.7-16.6c7.7-4.4,15.4-8.9,23.1-13.3
		c0.2,4.5,0.6,9,0.6,13.6c0,0.8-1.6,1.7-2.6,2.3c-54.6,30.4-109.1,60.7-163.7,91C293.1,474,284.8,478.2,276.6,482.6z"/>
	<path class="st4" d="M361.5,292.1c-11.3-6.3-22.6-12.7-34.3-19.2c4.1-5.7,8-11.2,12-16.8c4.1,2.2,8.2,4.5,12.3,6.6
		c5.5,2.8,11.1,5.4,16.6,8.1c0,2.5,0,5,0,7.5c0.4,0.1,0.8,0.3,1.2,0.4c2.1-3.5,4.1-6.9,6.2-10.4c5-2.5,6.9-6.9,7.3-12.2
		c1.8,1.1,3.6,2.2,5.4,3.3c10.3,5.8,20.6,11.6,30.9,17.3c1.7,0.9,3.6,1.5,5.3,2.3l0.1,0c0.1,6.4,0.3,12.7,0.1,19.1
		c-0.1,4.8-0.6,9.5-1,14.3c-2.2-0.8-4.4-1.6-6.6-2.5c-0.3,0-0.5-0.1-0.8-0.2c-0.9-0.8-1.6-1.8-2.6-2.4
		c-10.5-5.9-20.9-11.8-31.4-17.7c-0.8-0.4-1.7-0.5-2.6-0.8c-3.5-2.4-7-4.7-10.5-7.1c-0.3,0.3-0.7,0.6-1,0.9c0,2.7-0.1,5.3,0,8
		c0.1,1.9-0.4,3.2-2.6,3.1c-0.7,0-1.5-0.1-2.2-0.1C362.7,293.1,362.1,292.6,361.5,292.1z"/>
	<path class="st5" d="M225.2,176.9c-2.9-1.3-5.9-2.5-8.7-4c-9.2-5.1-18.2-10.4-27.4-15.5c-4.9-2.8-9.8-5.5-14.7-8.2
		c-2.9-1.7-5.8-3.3-9-5.1c6.4-8.9,12.7-17.4,18.9-26c1.7,0.7,3.5,1.3,5.2,2.2c8.4,4.8,16.7,9.8,25.2,14.5c3.3,1.9,7,3.1,10.5,4.6
		C225.2,151.9,225.2,164.4,225.2,176.9z"/>
	<path class="st6" d="M225.2,139.3c-3.5-1.5-7.2-2.8-10.5-4.6c-8.5-4.7-16.8-9.7-25.2-14.5c-1.6-0.9-3.4-1.5-5.2-2.2
		c-2.3-1.6-4.5-3.2-6.8-4.7c-1.2-0.8-2.5-1.5-4.3-2.5c4.9-7,9.8-13.8,14.5-20.6c2.4-3.4,4.6-6.9,7-10.4c4.5,2.7,9,5.4,13.6,7.9
		c5.3,2.9,10.7,5.5,16,8.3c0.3,0.3,0.5,0.6,0.8,0.8c0,13.9,0,27.7,0,41.6C225.2,138.8,225.2,139.1,225.2,139.3z"/>
	<path class="st7" d="M225.2,138.5c0-13.9,0-27.7,0-41.6c0-0.3,0-0.6,0-0.9c0,0,0,0,0,0c4.6-2.5,9.2-5.1,13.8-7.6
		c4.9-2.7,9.7-5.3,14.6-7.9c7,10.1,13.9,20.2,20.7,30.1c-3.6,2.6-6.8,5.1-10.1,7.5c-1.4,0.4-3,0.6-4.3,1.2c-1.8,1-3.4,2.5-5.2,3.6
		c-4.3,2.6-8.5,5.1-12.9,7.5C236.4,133.2,230.8,135.8,225.2,138.5z"/>
	<path class="st8" d="M423.6,312.3c0.3-4.8,0.9-9.5,1-14.3c0.1-6.3-0.1-12.7-0.1-19.1c1.5-0.4,3.3-0.5,4.6-1.2
		c8.2-4.7,16.2-9.6,24.4-14.3c3.5-2,7.1-3.8,10.7-5.7c5.3,7.7,10.6,15.4,16.2,23.5c-15.5,9.1-30.9,18.1-46.3,27.1
		c-1.5,1-3,2-4.5,3.1c-1.5,0.6-2.9,1.3-4.4,1.9C424.6,313,424.1,312.6,423.6,312.3z"/>
	<path class="st9" d="M224.4,96.1c-5.4-2.8-10.8-5.4-16-8.3c-4.6-2.5-9.1-5.3-13.6-7.9c-2.2-1.2-4.5-2.4-7.1-3.8
		c5.3-7.4,10.4-14.7,15.6-22c6.4-9,12.8-18.1,19.3-27.1c0.5-0.7,1.8-1,2.7-1.5c0,23.5,0,47.1-0.1,70.6c0,0,0,0,0,0
		C224.9,96.1,224.7,96.1,224.4,96.1z"/>
	<path class="st10" d="M225.2,96.1c0-23.5,0-47.1,0.1-70.6C236.8,42.2,248.4,59,260,75.7c-2.3,1.8-4.3,3.3-6.3,4.8
		c-4.9,2.6-9.8,5.2-14.6,7.9C234.4,91,229.8,93.5,225.2,96.1z"/>
	<path class="st11" d="M464.1,257.8c-3.6,1.9-7.2,3.6-10.7,5.7c-8.1,4.7-16.2,9.6-24.4,14.3c-1.3,0.8-3.1,0.8-4.6,1.2
		c0,0-0.1,0-0.1,0c0-9.8,0-19.6,0-29.4c0-0.3,0-0.5,0-0.8c9.9-5.5,19.8-11,29.7-16.4c0.5-0.3,1.3,0,1.9,0
		c4.8,6.8,9.5,13.7,14.2,20.4C468.1,254.5,466.1,256.2,464.1,257.8z"/>
	<path class="st6" d="M424.4,248.8c0,0.3,0,0.5,0,0.8c-6.8-3.9-13.4-7.9-20.3-11.6c-4.3-2.3-8.7-4.2-12.2-7.8
		c-0.7-0.7-2.2-0.7-3.4-1c-5.1-3.5-5.1-3.5-1.6-8.3c4.5-6.5,9.1-12.9,13.6-19.4c8,4.6,15.9,9.2,23.9,13.8
		C424.4,226.4,424.4,237.6,424.4,248.8z"/>
	<path class="st7" d="M424.4,248.8c0-11.2,0-22.3-0.1-33.5c0-0.3,0-0.5,0-0.8c0.7-0.1,1.5,0,2-0.3c6.1-4.5,14-6.1,19.5-11.6
		c0.3-0.3,1-0.3,1.5-0.4c5.5,7.9,11.1,15.9,16.7,23.9c-2.8,2.2-5.4,4.3-8,6.3c-0.7,0-1.4-0.2-1.9,0
		C444.2,237.8,434.3,243.3,424.4,248.8z"/>
	<path class="st11" d="M225.2,138.5c5.5-2.7,11.1-5.3,16.6-8.1c4.4-2.3,8.6-4.9,12.9-7.5c1.8-1.1,3.4-2.6,5.2-3.6
		c1.3-0.7,2.8-0.8,4.3-1.2c0.6,1,1.3,2,1.9,3c0,0.4-0.1,0.8-0.1,1.1c-7.1,10.2-14.2,20.5-21.3,30.8c1.6,1.3,2.9,2.4,4.2,3.5
		c-3.5,4.6-7,9.3-10.6,13.9c-0.3,0.6-0.6,1.1-0.9,1.7l0,0c-1.8,0.6-3.7,1-5.5,1.7c-2.3,0.9-4.5,2.1-6.8,3.2c0,0-0.1,0-0.1,0
		c0-12.5,0-25,0-37.6C225.2,139.1,225.2,138.8,225.2,138.5z"/>
	<path class="st8" d="M270.1,246.3c-0.3-1.3-0.8-2.5-0.8-3.8c-0.1-7.4,0-14.9,0-22.3c10.7-6.3,21.4-12.5,32.2-18.8
		c4.4,6.6,8.8,13.3,13.4,20.3c-7.6,4.4-15.2,8.8-22.8,13.1c-2.1-2.5-4.2-4.9-6.4-7.4c-1.2,0.6-2.7,1-3.4,1.9
		C278.2,234.9,274.2,240.6,270.1,246.3z"/>
	<path class="st9" d="M424.4,214.5c0,0.3,0,0.5,0,0.8c-8-4.6-15.9-9.2-23.9-13.8c-1.8-1-3.5-1.9-5.7-3.1c9.4-13,18.7-25.8,27.9-38.6
		c0.6,1.3,1.6,2.6,1.6,3.9C424.4,180.6,424.4,197.5,424.4,214.5z"/>
	<path class="st12" d="M424.4,214.5c0-16.9,0-33.9-0.1-50.8c0-1.3-1-2.6-1.6-3.9c0.5-0.7,0.9-1.5,1.7-2.7
		c9.5,13.9,18.7,27.4,28.1,41.2c-1.8,1.4-3.5,2.6-5.1,3.9c-0.5,0.1-1.2,0.1-1.5,0.4c-5.6,5.5-13.4,7.1-19.5,11.6
		C425.9,214.5,425.1,214.4,424.4,214.5z"/>
	<path class="st13" d="M62.2,309.1c-0.9-0.7-1.9-1.5-2.8-2.2c-8-4.5-16-9-24.5-13.8c4.1-5.7,8-11.2,12-16.7c5,2.7,9.9,5.5,14.9,8.1
		c4.6,2.4,9.3,4.5,14,6.7c0,6.7,0.1,13.3,0,20c0,1.3-0.6,2.5-0.9,3.8c-1.6-0.6-3.2-1.1-4.8-1.7C67.5,311.8,64.8,310.4,62.2,309.1z"
		/>
	<path class="st14" d="M74.9,314.9c0.3-1.3,0.9-2.5,0.9-3.8c0.1-6.6,0-13.3,0-20l0,0c1-0.4,2.1-0.6,3-1.1c8.3-4.5,16.5-9,24.7-13.6
		c1.4,1.7,2.7,3.3,4.1,5c1.6,2.5,3.2,5,4.8,7.5c0.8,1.5,1.5,3,2.3,4.6c-6.9,4-13.5,7.8-20.2,11.7c-3.5,2.1-7.1,4.3-10.6,6.4
		c-0.8,0.5-1.6,1.1-2.4,1.6c-1.9,1.1-3.9,2.2-5.8,3.3C75.5,315.9,75.2,315.4,74.9,314.9z"/>
	<path class="st13" d="M163.4,257.5c-2.2-1.5-4.5-3.1-6.7-4.6c-7.6-4.4-15.2-8.8-22.8-13.2c-0.1-3-0.2-6.1-0.3-9.1c0,0,0,0,0,0
		c3.4,0.1,3.7-2.2,3.4-4.8c0,0,0,0,0,0c1-0.2,1.9-0.4,3-0.7c-0.6-0.7-0.9-1.2-1.3-1.7c0.6-1,1.3-2.1,1.9-3.1
		c5.6,3.1,11.1,6.3,16.8,9.2c4,2,8.2,3.7,12.3,5.5c0,8.1,0,16.3,0,24.4C167.6,258.7,165.5,258.1,163.4,257.5z"/>
	<path class="st11" d="M301.5,201.4c-10.7,6.3-21.4,12.5-32.2,18.8c0,0-0.1,0-0.1,0c0-8.2,0-16.3,0.1-24.5c1.2-0.8,2.5-1.5,3.7-2.3
		c7.3-4.4,14.6-8.8,21.9-13.1c3.9,5.9,7.7,11.9,11.8,18.2C304.9,199.5,303.2,200.4,301.5,201.4z"/>
	<path class="st7" d="M294.9,180.3c-7.3,4.4-14.6,8.7-21.9,13.1c-1.2,0.7-2.5,1.5-3.7,2.3c-0.3-0.5-0.5-1.1-0.8-1.6
		c0.3-9,0.5-18,0.8-27c6.3-3.5,12.5-7.1,18.8-10.6c4.5,6.5,9,13,13.8,19.8C299.3,177.8,297.1,179,294.9,180.3z"/>
	<path class="st5" d="M169.7,234.9c-4.1-1.8-8.3-3.4-12.3-5.5c-5.7-2.9-11.2-6.1-16.8-9.2c-1.5-1.1-3-2.1-4.8-3.3
		c3.6-5,7-9.8,10.4-14.6c1.3,0.4,2.6,0.6,3.8,1.2c4.6,2.7,9.1,5.5,13.6,8.3c2,1.3,4,1.9,6.1,0.2c0,0.6,0,1.1,0,1.7
		C169.7,220.7,169.7,227.8,169.7,234.9L169.7,234.9z"/>
	<path class="st5" d="M75.8,291.2c-4.7-2.2-9.4-4.4-14-6.7c-5-2.6-9.9-5.4-14.9-8.1c-1.5-1.1-3-2.2-4.9-3.5
		c3.5-4.8,6.9-9.6,10.3-14.3c2.2,1,4.3,1.9,6.5,2.9c5.4,2.5,10.8,5.1,16.2,7.7c0,0,0,0,0,0c0.3,0.3,0.5,0.5,0.8,0.8l0,0
		C75.9,277,75.8,284.1,75.8,291.2L75.8,291.2z"/>
	<path class="st5" d="M368.1,270.8c-5.5-2.7-11.1-5.3-16.6-8.1c-4.2-2.1-8.2-4.4-12.3-6.6c-1.5-1.1-3-2.2-4.8-3.5
		c3.5-4.9,6.9-9.7,10.4-14.5c0.3-0.3,0.7-0.9,0.8-0.8c4.1,2.5,8.1,5.1,12.3,7.5c3.1,1.8,6.3,3.2,9.5,4.8c0,0,0.1,0,0.1,0
		c0,2-0.2,4-0.1,6c0.2,4.8,0.6,9.6,0.8,14.3C368.1,270.2,368.1,270.5,368.1,270.8z"/>
	<path class="st10" d="M288.1,156.5c-6.3,3.5-12.5,7.1-18.8,10.6c0-0.3,0-0.6-0.1-0.9c-0.3-4.3-0.7-8.6-0.7-12.9
		c-0.1-9.2,0-18.4-0.1-27.6c0-1.7,0.5-3.8-2.4-3.5c0-0.4,0.1-0.8,0.1-1.1c1.2-0.2,2.3-0.4,3.7-0.6c7.3,10.7,14.7,21.5,22.1,32.4
		C290.5,154.2,289.3,155.3,288.1,156.5z"/>
	<path class="st11" d="M75.8,291.2c0-7.1,0-14.1,0-21.2c5.3-2.8,10.7-5.7,16.1-8.4c2-1,4.2-1.6,6.3-2.4c3.2,4.5,6.5,9.1,9.8,13.7
		c-1.6,1.3-3,2.5-4.4,3.6c-8.2,4.5-16.5,9.1-24.7,13.6C77.9,290.6,76.9,290.8,75.8,291.2z"/>
	<path class="st6" d="M169.7,212c-2.1,1.8-4,1.1-6.1-0.2c-4.5-2.8-9-5.6-13.6-8.3c-1.1-0.7-2.5-0.8-3.8-1.2c-1.9-1.4-3.9-2.8-6-4.3
		c4.1-5.7,8.1-11.3,12.1-16.8c3.4,1.8,6.8,3.8,10.3,5.5c2.2,1.1,4.7,1.8,7,2.6l0.1,0C169.7,196.8,169.7,204.4,169.7,212z"/>
	<path class="st6" d="M75,269.1c-5.4-2.6-10.8-5.2-16.2-7.7c-2.1-1-4.3-1.9-6.5-2.9c-1.8-1.5-3.7-3-5.7-4.6
		c3.8-5.7,7.8-11.6,11.8-17.4c5.5,3,11,6,16.5,8.9l0.1,0c0.3,2.3,0.8,4.5,0.7,6.8C75.7,257.9,75.3,263.5,75,269.1z"/>
	<path class="st7" d="M312.5,275.7c-1.6,1.1-3.2,2.2-4.9,3.3c-3.4,1.8-6.8,3.5-10.2,5.3c-3.9,2-7.9,4.1-11.8,6.2
		c-0.3-0.3-0.5-0.5-0.8-0.8c0.3-7.9,0.5-15.8,0.8-23.7c5.5-2.5,10.9-4.9,16.4-7.4c3.5,5,7.1,10.1,10.5,15.2
		C312.9,274.1,312.5,275,312.5,275.7z"/>
	<path class="st7" d="M75,269.1c0.3-5.6,0.6-11.3,0.8-16.9c0-2.3-0.5-4.5-0.7-6.8c1.2-0.5,2.4-1.1,3.6-1.6c4.4-2.2,8.9-4.4,13.3-6.5
		c3.8,5.5,7.7,11.1,11.3,16.4c-1.8,1.9-3.5,3.7-5.1,5.5c-2.1,0.8-4.3,1.4-6.3,2.4c-5.4,2.7-10.7,5.6-16.1,8.4c0,0,0,0,0,0
		C75.6,269.7,75.3,269.4,75,269.1C75,269.1,75,269.1,75,269.1z"/>
	<path class="st6" d="M367.3,249.5c-3.2-1.6-6.4-3-9.5-4.8c-4.2-2.4-8.2-5-12.3-7.5c-0.1,0-0.5,0.5-0.8,0.8
		c-1.9-1.4-3.8-2.8-5.9-4.4c3.2-4.6,6.5-9.2,9.7-13.8c0.8-1.2,1.3-2.5,2-3.8c5.6,3,11.2,6,16.8,9l0.1,0
		C367.3,233.2,367.3,241.4,367.3,249.5z"/>
	<path class="st7" d="M367.3,249.5c0-8.2,0-16.3,0.1-24.5c1.9-0.7,3.9-1.1,5.6-2c3.8-1.9,7.5-4.1,11.3-6.2c0.9,1.3,1.8,2.6,2.7,3.9
		c-3.5,4.9-3.5,4.9,1.6,8.3c1.1,1.4,2.1,2.8,3.3,4.4c-2.3,2.7-4.4,5.3-6.6,7.8c-2.5,1.1-5.1,2.1-7.6,3.2
		C374.1,246.2,370.7,247.9,367.3,249.5L367.3,249.5z"/>
	<path class="st15" d="M169.7,189.1c-2.4-0.9-4.8-1.5-7-2.6c-3.5-1.7-6.9-3.6-10.3-5.5c-1.2-0.9-2.4-1.7-3.9-2.9
		c5.6-7.8,11.1-15.7,16.8-23.5c1.2-1.6,3-2.8,4.6-4.2c-0.3,2.5-0.9,5.1-0.8,7.6C169.1,168.4,169.4,178.7,169.7,189.1z"/>
	<path class="st10" d="M92,237.3c-4.4,2.2-8.9,4.4-13.3,6.5c-1.2,0.6-2.4,1.1-3.6,1.6c0,0-0.1,0-0.1,0c0.1-12.5,0.2-24.9,0.3-37.4
		c0-0.3-0.7-0.6-1-0.9c0.3-0.5,0.6-1.1,1.2-2.1c6.8,10,13.4,19.6,19.9,29.1C94.1,235.3,93.1,236.3,92,237.3z"/>
	<path class="st10" d="M384.2,216.9c-3.7,2.1-7.5,4.2-11.3,6.2c-1.8,0.9-3.7,1.4-5.6,2c0,0-0.1,0-0.1,0c0-9.4-0.1-18.8,0.1-28.1
		c0.1-3.4,0.9-6.8,1.5-10.3c6.3,9.1,12.5,18.2,18.8,27.2C386.4,215,385.3,216,384.2,216.9z"/>
	<path class="st15" d="M368.8,186.7c-0.5,3.4-1.4,6.8-1.5,10.3c-0.2,9.4-0.1,18.7-0.1,28.1c-5.6-3-11.2-6-16.8-9
		c-1.2-0.6-2.4-1.2-3.8-1.9c7-9.9,13.8-19.5,20.9-29.4C368.1,185.6,368.5,186.1,368.8,186.7z"/>
	<path class="st15" d="M74.3,207.1c0.4,0.3,1,0.6,1,0.9c-0.1,12.5-0.2,24.9-0.3,37.4c-5.5-3-11-6-16.5-8.9c-1.2-0.6-2.3-1.3-4-2.2
		C61.2,225.1,67.7,216.1,74.3,207.1z"/>
	<path class="st12" d="M302.1,258.5c-5.5,2.5-10.9,4.9-16.4,7.4c-0.3,0-0.5,0-0.8,0c0-12.2,0-24.5,0.1-36.7c0-0.6,0.6-1.1,0.9-1.7
		c2.1,2.5,4.2,4.9,6.4,7.4c3.3,5.2,6.6,10.3,10,15.5c0.9,1.5,1.9,2.9,2.6,4C303.7,255.9,302.9,257.2,302.1,258.5z"/>
	<path class="st10" d="M169.7,189.1c-0.3-10.4-0.6-20.8-0.7-31.2c0-2.5,0.5-5.1,0.8-7.6c0.8,0.8,1.6,1.6,2.3,2.3
		c2.8,4.4,5.5,8.9,8.3,13.2c2.1,3.2,4.2,6.6,6.6,9.5c2.1,2.5,1.2,4-1,5.5c-3.2,1.7-6.3,3.4-9.5,5C174.3,187.1,172,188.1,169.7,189.1
		L169.7,189.1z"/>
	<path class="st16" d="M429.5,311.4c1.5-1,3-2.1,4.5-3.1c0.1,12,0.2,23.9,0.2,35.8c0,3.5-0.1,6.9-0.1,10.4c0,2.7-0.9,4.4-3.8,4.5
		c3.1-2.6,2.4-6.1,2.3-9.4c-0.2-7.5-0.6-15.1-0.9-22.6c-0.1-4.2,0.1-8.4-0.1-12.6C431.7,313.4,430.3,312.4,429.5,311.4z"/>
	<path class="st16" d="M361.5,292.1c0.6,0.5,1.2,1,1.8,1.5c-0.3,1.4-0.8,2.8-0.8,4.2c-0.1,9.8-0.1,19.6-0.1,29.4
		c-0.3-2.1-0.7-4.1-0.8-6.2c-0.1-6-0.1-12.1-0.1-18.1C361.5,299.2,361.5,295.7,361.5,292.1z"/>
	<path class="st7" d="M133.5,230.5c0.1,3,0.2,6.1,0.3,9.1c-1.7-0.8-3.3-1.6-5.3-2.6C130.3,234.7,131.9,232.6,133.5,230.5z"/>
	<path class="st7" d="M136.9,225.7c0.3,2.6,0.1,4.8-3.4,4.8C134.7,228.9,135.8,227.3,136.9,225.7z"/>
	<path class="st7" d="M138.6,223.3c0.4,0.5,0.7,1,1.3,1.7c-1.1,0.3-2.1,0.5-3,0.7C137.5,224.9,138.1,224.1,138.6,223.3z"/>
	<path class="st9" d="M84,311.6c3.5-2.1,7.1-4.3,10.6-6.4c1.3,0.5,2.7,1.5,3.9,1.3c1.9-0.3,3.7-1.5,5.5-2.3c6.4-3,12.8-6,19.1-8.9
		c0.8,0.3,1.6,0.6,2.3,1c0.1,2.5,0.8,5.1,0.2,7.5c-0.9,3.7-2.6,7.1-3.9,10.7c-1,2.9-1.9,5.8-2.9,8.8c-4.6-3.6-9.7-3.4-15.3-2.7
		c-4.7,0.7-7.4,3.7-10.6,6.2c-1.2,0.9-1.5,2.8-2.2,4.3c1.5,0.4,3,0.9,4.5,1c0.8,0,1.7-0.6,2.4-1.2c2.9-2.3,5.9-3.7,9.9-2.9
		c3.8,0.8,7.7,1.2,11.6,1.6c1.5,0.1,3.1-0.4,4.6-0.7c0.3,0.5,0.5,1.1,0.8,1.6c-2.4,1.8-4.9,3.4-7.1,5.3c-1.4,1.2-2.8,2.7-3.4,4.3
		c-1.6,4.7-2.7,9.6-4.2,14.3c-0.4,1.3-1.5,2.4-2.3,3.6c-5.1-0.4-10.6,0.2-15.2-1.6c-2.4-0.9-3.3-6-4.4-9.4c-0.7-2.1-0.7-4.5-1-6.7
		c0.8-1.8,1.9-3.5,2.5-5.4c0.7-2.4-0.9-3.9-3.3-3.1c-0.7,0.2-1.4,0.5-3.4,1.1C83.3,325.4,83.6,318.5,84,311.6z"/>
	<path class="st17" d="M292.3,343.4c1.3,0.3,2.8,0.2,3.9,0.8c6.8,3.8,13.6,7.8,20.4,11.6c5.5,3,11.2,5.8,16.7,8.8
		c1.1,0.6,2,1.7,2.9,2.5c-4.1,2.1-8.2,4-12.2,6.2c-10.3,5.5-20.7,11.1-31,16.7c-18.6-10.2-37.3-20.3-55.9-30.5
		c-0.3,0.6-0.7,1.3-1.1,1.9c0.6-1.5,0.9-3.7,2-4.3c13.6-7.5,27.3-14.7,41-21.9c0,3,0,6,0,9c-8.8,4.6-17.7,9.2-27.4,14.4
		c3.8,1.8,6.7,3.1,9.6,4.4c0.7,0.7,1.3,1.5,2.1,1.9c8.8,4.8,17.5,9.8,26.5,14.3c1.8,0.9,4.8,0.6,6.8-0.3c5.2-2.3,10.1-5.2,15.2-7.8
		c2.5-1.5,4.9-3,8.2-5c-9.8-5.2-18.7-9.9-27.6-14.6C292.3,348.9,292.3,346.2,292.3,343.4z"/>
	<path class="st18" d="M166.1,347.3c-8.6,0.5-17.1,0.3-24.8-4.3c-4.4-2.6-7.7-6.3-8.8-11.2c-1.6-6.9,1.9-10.7,10.7-13.7
		c4.7-1.6,9.4-0.6,13.8,1.6c5.9,3,12.2,5.3,17.6,8.9c3.3,2.2,5.8,6.1,7.9,9.6c3,5.1,0.7,8.8-5.3,9
		C173.4,347.5,169.7,347.3,166.1,347.3z"/>
	<path class="st18" d="M208.8,302c-3.7-0.5-9-1-14.1-2c-5.3-1.1-10-3.8-13.1-8.3c-2.6-3.7-5-7.8-2.5-12.4c2.5-4.6,6.7-7.1,11.8-7.5
		c9.8-0.8,18.1,3.6,26.2,8.3c5.3,3,9.3,7.4,11.6,13.2c1.9,4.8,0.5,7.2-4.5,7.7C219.6,301.4,215,301.6,208.8,302z"/>
	<path class="st2" d="M249.2,316.4c-1.4-1-2.8-2-4.2-3c1.6-2.6,3.2-5.1,4.8-7.5c2.3-3.2,4.6-6.5,6.9-9.7c0.8,0.8,1.6,1.8,2.5,2.3
		c4.7,2.6,9.3,5.2,14.1,7.6c4,2,8.2,3.7,12.3,5.5l0.1,0c0,8.1,0,16.2-0.1,24.3c0,0-0.1,0.3-0.1,0.3c-2.1-1.1-4.3-2.1-6.4-3.2
		c-4.9-2.4-9.8-4.9-14.6-7.3c-2.5-1.7-5-3.4-7.5-5.2C254.4,319.2,251.8,317.8,249.2,316.4z"/>
	<path class="st14" d="M285.6,335.9c0-8.1,0-16.2,0.1-24.3c0.7-0.1,1.4,0,2-0.3c5.1-3,10-6.1,15.1-9c3.4-1.9,7-3.6,10.5-5.4
		c2.4,3.2,4.7,6.5,7.1,9.7c1.3,2.2,2.6,4.3,4.1,6.9c-1.5,1-3,2.1-4.5,3.1c-2.7,1.6-5.5,3.2-8.2,4.8c-2.7,1.6-5.4,3.2-8.1,4.9
		c-3.9,2.2-7.8,4.3-11.6,6.5C289.9,333.8,287.7,334.9,285.6,335.9z"/>
	<path class="st8" d="M169.7,259.3c0-8.1,0-16.3,0-24.4c0,0,0,0,0,0c1.2-0.4,2.5-0.7,3.6-1.3c8.1-4.2,16.1-8.4,24.1-12.7
		c1.6,2.2,3.3,4.4,4.9,6.6c2,3.1,4.1,6.2,6.1,9.4c-5.4,3.5-10.5,6.8-15.6,10c-1.5,0.7-3,1.5-4.5,2.2c-4.1,2.3-8.3,4.6-12.4,6.9
		c-1.1,1-2.1,2.1-3.2,3.1c-1.1,0.1-2.2,0.1-3.2,0.2L169.7,259.3z"/>
	<path class="st17" d="M353.4,387.5c-0.7-4.4,3.1-5.3,5.7-6.9c5.9-3.5,12.1-6.6,18.1-10c0.9-0.5,1.6-1.3,2.4-2
		c2.9-1.2,5.8-2.4,9.5-3.9c-4.8-2.6-8.7-4.7-12.6-6.8c-9.7-5.1-19.3-10.3-29-15.4c1.3-3.5,6.8-5.7,10.2-3.9
		c9.3,5,18.6,10.1,27.8,15.3c5.8,3.2,11.5,6.5,17.1,9.9c0.7,0.4,1,1.4,1.4,2.1c-5,2.6-10.2,5-15.1,7.7c-8.9,4.8-17.7,9.8-26.6,14.7
		c-2.5-1-4.9-2-7.5-3C354.4,386,353.9,386.8,353.4,387.5z"/>
	<path class="st17" d="M237.5,402.2c2-3.9,6.7-5.8,10.3-3.8c11.8,6.4,23.6,12.8,35.3,19.3c2.7,1.5,4.8,1.2,7.5-0.3
		c9.9-5.6,20-10.9,30-16.2c2-1.1,7,1.3,9.1,4.3c-14.4,7.7-28.8,15.3-43.2,23c-9.1-5-18.3-10.1-27.4-15
		C251.9,409.6,244.7,406,237.5,402.2z"/>
	<path class="st17" d="M190.8,366.1c8.2,4.7,16.4,9.3,24.6,14.1c2.5,1.5,4.9,3.2,7.4,4.8c-2.2,1.4-4.3,2.8-6.5,4.2
		c-14.5-8.1-29-16.3-43.6-24.4c-1.9-1.1-4.1-1.7-6.2-2.5c3.6-2.5,7.1-5.2,10.9-7.3c9.5-5.3,19.2-10.4,28.9-15.4
		c4.6-2.4,6.5-1.6,9.9,2.9c-0.4,0.5-0.8,1.2-1.3,1.5c-7.5,4-15,7.9-22.6,11.8c-3.2,1.7-6.5,3.5-10.7,5.8
		C185.4,363.4,188.1,364.8,190.8,366.1z"/>
	<path class="st19" d="M320.4,306.6c-2.4-3.2-4.7-6.5-7.1-9.7c1.3-0.8,2.7-1.7,4-2.5c11.8,1.7,21.5,7.5,30.3,15.1
		c3.1,2.8,6.1,5.7,9.1,8.7c4.4,4.5,2.9,9.6-1.4,13.4c-5,4.4-11.6,3.6-14.7-1.7c-1.9-3.2-2.5-7.2-4.5-10.2c-2.3-3.4-5.2-6.5-8.3-9.2
		C325.7,308.6,322.9,307.9,320.4,306.6z"/>
	<path class="st19" d="M256.7,296.1c-2.3,3.2-4.6,6.5-6.9,9.7c-1.2-0.7-2.9-1.1-3.5-2.1c-2.9-5.6-5-11.6-8.2-17
		c-2-3.3-2.7-8.3-8-8.7c6.6-2.3,6.6-2.3,6.6-9.4c0-3.1,0.1-6.2,0.1-9.3c8,2.5,14.2,7.9,20.5,13.2c0.3,1.1,0.2,2.4,0.8,3.2
		c1.1,1.3,2.6,2.2,4,3.3c-3.4,4.8-6.7,9.6-10.4,14.8C253.6,294.7,255.2,295.4,256.7,296.1z"/>
	<path class="st20" d="M214.6,213.9c1.9,1.1,4,1.9,5.8,3.3c1,0.8,3.9,0.9,2,3.6c-0.1,0.2,1.8,1.8,2.8,2.8
		c-0.1,18.4-0.1,36.8-0.2,55.2c-3.5-1.1-7-2.3-10.5-3.4c0.3-4.7,0.7-9.4,0.8-14.1c0.1-11.2,0.1-22.4,0-33.6c0-3.3-0.9-6.6-1.3-9.9
		c0-0.6,0-1.1,0-1.7C214.3,215.3,214.5,214.6,214.6,213.9z"/>
	<path class="st21" d="M225.1,278.8c0.1-18.4,0.1-36.8,0.2-55.2c3.8,2.1,7.6,4.3,11.4,6.4c0.1,1.2,0.1,2.5,0.2,3.7
		c0,8.5-0.1,17.1-0.1,25.6c0,3.1-0.1,6.2-0.1,9.3c0,7.1,0,7.1-6.6,9.4C228.4,278.3,226.8,278.6,225.1,278.8z"/>
	<path class="st11" d="M317.3,294.4c-1.3,0.8-2.7,1.7-4,2.5c-3.5,1.8-7.1,3.4-10.5,5.4c-5.1,2.9-10.1,6-15.1,9
		c-0.5,0.3-1.3,0.2-2,0.3c0,0-0.1,0-0.1,0c0-7.1,0-14.1,0-21.2c3.9-2.1,7.9-4.1,11.8-6.2c3.4-1.8,6.8-3.5,10.2-5.3
		c2.8,4.1,5.7,8.1,8.5,12.2C316.7,292.1,316.9,293.3,317.3,294.4z"/>
	<path class="st15" d="M236,361.5c0.4-0.7,0.8-1.4,1.1-1.9c18.7,10.2,37.3,20.3,55.9,30.5c-0.3,2.7-0.6,5.5-0.9,8.2
		c-12.4-6.8-24.8-13.6-37.2-20.4c-4.7-2.6-9.3-5.5-14.3-7.5C236.2,368.5,235.2,365.6,236,361.5z"/>
	<path class="st19" d="M188.5,249.2c1.5-0.7,3-1.5,4.5-2.2c6.9,0.3,13.8,0.6,20.8,0.9c0,6.5,0,13,0,19.6c-6.8-1.8-14.1-1.1-20.8-4
		C187,260.9,185.3,256.6,188.5,249.2z"/>
	<path class="st15" d="M166.5,362.3c2.1,0.8,4.3,1.5,6.2,2.5c14.6,8.1,29.1,16.3,43.6,24.4c0,2.8,0,5.6,0,8.4
		c-0.4,0.1-0.9,0.4-1.1,0.3c-7.7-4.2-15.4-8.4-23-12.8c-7.5-4.3-14.8-8.9-22.5-12.8c-2.7-1.4-3.6-2.8-3.3-5.5
		C166.6,365.3,166.5,363.8,166.5,362.3z"/>
	<path class="st15" d="M237.5,402.2c7.2,3.7,14.4,7.4,21.6,11.2c9.2,4.9,18.3,10,27.4,15c-0.3,2.7-0.7,5.5-1,8.2
		c-14.8-8-29.6-16.1-44.4-24c-2.8-1.5-4.2-3.2-3.7-6.3C237.6,405,237.5,403.6,237.5,402.2z"/>
	<path class="st20" d="M423.6,312.3c0.5,0.4,1,0.7,1.5,1.1c0,15.4,0,30.8,0,46.2c1.1,0.1,1.9,0.2,2.7,0.2c-3.4-0.4-6.8-0.5-10.1-1.2
		c-0.7-0.1-1.5-1.9-1.5-2.9c-0.1-7.4,0.1-14.9,0.1-22.3c0.2-1.1,0.7-2.3,0.7-3.4c0.1-6.7,0-13.5,0-20.2
		C419.2,310.6,421.4,311.5,423.6,312.3z"/>
	<path class="st10" d="M362.3,388.3c8.9-4.9,17.7-9.9,26.6-14.7c5-2.7,10.1-5.1,15.1-7.7c1.7,5.9,1.2,7.6-3.8,10.4
		c-12.3,6.8-24.7,13.5-37.1,20.1c-0.7,0.4-1.7,0.2-2.6,0.3C361.1,393.9,361.7,391.1,362.3,388.3z"/>
	<path class="st10" d="M285.5,436.6c0.3-2.7,0.7-5.5,1-8.2c14.4-7.7,28.8-15.3,43.2-23c1.4,6.1,0.6,8.6-4.7,11.5
		c-12.1,6.7-24.3,13.2-36.5,19.7C287.7,437.1,286.5,436.7,285.5,436.6z"/>
	<path class="st10" d="M292.1,398.2c0.3-2.7,0.6-5.5,0.9-8.2c10.3-5.6,20.6-11.2,31-16.7c4-2.1,8.1-4.1,12.2-6.2
		c1.4,6.4-1.1,9.9-7.1,12.7c-11.3,5.3-22,11.7-33,17.5C294.9,398,293.4,398,292.1,398.2z"/>
	<path class="st10" d="M107.8,358c0.8-1.2,1.9-2.3,2.3-3.6c1.5-4.7,2.6-9.6,4.2-14.3c0.6-1.6,2-3.1,3.4-4.3c2.2-1.9,4.7-3.6,7.1-5.3
		c0.5,0,1,0,1.6,0c0.6,3.4,1.5,6.9,1.8,10.3c0.8,9.7-1.2,12.2-10,15.6C114.7,357.6,111.4,358.7,107.8,358z"/>
	<path class="st15" d="M347.5,342.6c9.7,5.1,19.3,10.3,29,15.4c3.9,2.1,7.8,4.2,12.6,6.8c-3.7,1.5-6.6,2.7-9.5,3.9
		c-9-5-18.2-9.9-27.1-15C346.2,349.9,346.3,349.8,347.5,342.6z"/>
	<path class="st21" d="M427.8,359.8c-0.8-0.1-1.6-0.1-2.7-0.2c0-15.4,0-30.8,0-46.2c1.5-0.6,2.9-1.3,4.4-1.9c0.8,1,2.2,1.9,2.2,2.9
		c0.3,4.2,0,8.4,0.1,12.6c0.2,7.5,0.7,15.1,0.9,22.6c0.1,3.3,0.8,6.9-2.3,9.4c0,0-0.2,0.1-0.2,0.1c-0.3,0.2-0.6,0.3-0.9,0.5
		C428.8,359.7,428.3,359.7,427.8,359.8z"/>
	<path class="st10" d="M190.8,366.1c-2.7-1.4-5.4-2.7-9.1-4.5c4.2-2.3,7.4-4.1,10.7-5.8c7.5-4,15.1-7.9,22.6-11.8
		c0.5-0.3,0.9-1,1.3-1.5c2.5,3.5,1.8,8.5-1.8,10.5C206.6,357.4,198.7,361.7,190.8,366.1z"/>
	<path class="st6" d="M126.4,330.4c-0.5,0-1,0-1.6,0c-0.3-0.5-0.5-1.1-0.8-1.6c-1.6-1.9-3.3-3.8-4.9-5.7c0.9-2.9,1.8-5.9,2.9-8.8
		c1.3-3.6,3-7,3.9-10.7c0.6-2.3-0.1-5-0.2-7.5c4.1,0.9,4.8,4.5,5.6,7.7c0.8,3.2,1,6.4,2.2,9.7c1.7,4.7-1.4,9.3-4.7,13.1
		C127.8,327.8,127.1,329.2,126.4,330.4z"/>
	<path class="st16" d="M74.9,314.9c0.3,0.5,0.6,1.1,0.9,1.6c0,10.8,0.1,21.7,0.1,32.5c-5.9,0.1-6.5-0.6-6.6-6.3c-0.1-4-0.5-8-0.8-12
		c0.1-5.1,0.2-10.1,0.4-15.2c0-0.8,0.8-1.6,1.2-2.4C71.7,313.7,73.3,314.3,74.9,314.9z"/>
	<path class="st22" d="M374.4,292.1c0.2,6.4,0.3,12.9,0.5,19.3c-0.1,3.6-0.4,7.2-0.4,10.8c-0.1,6.2-4,8.5-9.7,5.7
		c2,0.2,3.4-0.1,3.3-2.7c-0.3-10-0.5-19.9-0.7-29.9C369.7,294.3,372,293.2,374.4,292.1z"/>
	<path class="st22" d="M285.6,335.9c2.1-1,4.3-2.1,6.4-3.1c0.1,3.5,0.2,7.1,0.3,10.6c0,2.7,0,5.5,0,8.2c0,2.9-0.1,5.9-0.1,8.8
		c-0.1,0.9-0.3,1.8-0.3,2.8c-0.1,5.6-0.5,6-6.2,6.3c0-11.1-0.1-22.2-0.1-33.2L285.6,335.9z"/>
	<path class="st20" d="M285.5,336.2c0,11.1,0.1,22.2,0.1,33.2c-6-0.1-6.6-0.7-6.6-6.4c0-3.2,0-6.5,0-9.7c0-3-0.1-6-0.1-9.1
		c0-3,0-6,0-9c0.1-0.7,0.1-1.5,0.2-2.2C281.3,334.1,283.4,335.2,285.5,336.2z"/>
	<path class="st20" d="M163.4,257.5c2.1,0.6,4.2,1.2,6.3,1.8c0,0,0,0.2,0,0.2c0,10.8,0,21.6,0,32.5c-1.3,0-2.6,0.1-3.9,0.1
		c-0.9-0.9-2.5-1.7-2.5-2.6C163.2,278.8,163.3,268.1,163.4,257.5z"/>
	<path class="st21" d="M75.9,349c0-10.8-0.1-21.7-0.1-32.5c1.9-1.1,3.9-2.2,5.8-3.3c0,3.8,0.1,7.6,0.1,11.5c0,7.6-0.1,15.1-0.1,22.7
		C79.7,347.9,77.8,348.5,75.9,349z"/>
	<path class="st20" d="M367.4,295.3c0.2,10,0.4,19.9,0.7,29.9c0.1,2.6-1.3,3-3.3,2.7c-0.8-0.3-1.6-0.5-2.4-0.8
		c0-9.8,0-19.6,0.1-29.4c0-1.4,0.5-2.8,0.8-4.2c0.7,0,1.5,0.1,2.2,0.1C366.1,294.2,366.7,294.8,367.4,295.3z"/>
	<path class="st15" d="M303.6,326.3c2.7-1.6,5.4-3.2,8.1-4.9c4.9,2.5,9.8,5,14.7,7.4c0,3,0,6,0,9c-2-0.8-4.1-1.3-5.9-2.3
		C314.9,332.5,309.3,329.4,303.6,326.3z"/>
	<path class="st15" d="M70.1,313.2c-0.4,0.8-1.2,1.6-1.2,2.4c-0.2,5.1-0.3,10.1-0.4,15.2c-6.5-4.7-12.3-15.4-6.3-21.7
		C64.8,310.4,67.5,311.8,70.1,313.2z"/>
	<path class="st23" d="M123.3,295.2c-6.4,3-12.8,6-19.1,8.9c-1.8,0.8-3.6,2-5.5,2.3c-1.2,0.2-2.6-0.8-3.9-1.3
		c6.6-3.8,13.2-7.7,20.2-11.7c-0.8-1.6-1.5-3.1-2.3-4.6C116.1,291,119.7,293.1,123.3,295.2z"/>
	<path class="st17" d="M326.5,328.9c-4.9-2.5-9.8-5-14.7-7.4c2.7-1.6,5.5-3.2,8.2-4.8c1.4,1.1,2.8,2.2,4.3,3.2
		c2.9,1.9,5.9,3.7,8.8,5.6C330.9,326.6,328.7,327.7,326.5,328.9z"/>
	<path class="st10" d="M257,320.6c2.5,1.7,5,3.4,7.5,5.2c-4.8,2.8-9.5,5.7-14.4,8.2c-0.8,0.4-2.5-0.7-3.8-1.1c3.6-1.7,1-4.9,1.8-7.3
		C251.1,323.9,254.1,322.2,257,320.6z"/>
	<path class="st16" d="M213.7,267.5c0-6.5,0-13,0-19.6c0-8.5-0.1-17-0.1-25.5c0.2-1.6,0.3-3.1,0.5-4.7c0.5,3.3,1.3,6.6,1.3,9.9
		c0.2,11.2,0.1,22.4,0,33.6c0,4.7-0.5,9.4-0.8,14.1C214.3,272.7,214,270.1,213.7,267.5z"/>
	<path class="st17" d="M257,320.6c-3,1.7-5.9,3.3-8.9,5c-2.4-1.1-4.9-2.2-7.3-3.3c2.8-2,5.6-3.9,8.3-5.9
		C251.8,317.8,254.4,319.2,257,320.6z"/>
	<path class="st24" d="M81.7,324.7c0-3.8-0.1-7.6-0.1-11.5c0.8-0.5,1.6-1.1,2.4-1.6c-0.4,6.9-0.7,13.8-1.1,21.4
		c2-0.7,2.7-0.9,3.4-1.1c2.4-0.8,4.1,0.7,3.3,3.1c-0.6,1.9-1.6,3.6-2.5,5.4c-1.6,0.1-3.2,0.1-4.8,0.2
		C82.1,335.2,81.9,330,81.7,324.7z"/>
	<path class="st22" d="M165.7,292c1.3,0,2.6-0.1,3.9-0.1c2.5,0,5,0.2,5-3.5c0-8.8,0-17.6-0.1-26.4c0-0.9-1.1-1.8-1.7-2.7
		c1.1-1,2.1-2.1,3.2-3.1c0,10,0,20.1,0,30.1C176.1,292.7,171.7,295.2,165.7,292z"/>
	<path class="st10" d="M326.5,328.9c2.2-1.1,4.4-2.3,6.6-3.4c1.9,7.9,1.2,9.2-6.6,12.4C326.5,334.9,326.5,331.9,326.5,328.9z"/>
	<path class="st10" d="M216.3,397.6c0-2.8,0-5.6,0-8.4c2.2-1.4,4.3-2.8,6.5-4.2C225.3,391.7,223.6,395.2,216.3,397.6z"/>
	<path class="st15" d="M362.3,388.3c-0.6,2.8-1.2,5.6-1.8,8.4c-7.3-2.8-7.3-2.9-7.1-9.2c0.5-0.8,0.9-1.5,1.4-2.2
		C357.4,386.3,359.9,387.3,362.3,388.3z"/>
	<path class="st15" d="M240.8,322.3c2.4,1.1,4.9,2.2,7.3,3.3c-0.9,2.4,1.7,5.6-1.8,7.3C240.6,330.7,240.6,330.7,240.8,322.3z"/>
	<path class="st21" d="M417,309.8c0,6.7,0,13.5,0,20.2c0,1.1-0.4,2.3-0.7,3.4c0-0.2-0.1-0.4-0.3-0.6c0.1-7.7,0.2-15.4,0.2-23.2
		C416.5,309.7,416.7,309.8,417,309.8z"/>
	<path class="st14" d="M81.7,324.7c0.2,5.3,0.4,10.5,0.6,15.8c-0.2,2.3-0.4,4.6-0.7,6.8C81.7,339.8,81.7,332.2,81.7,324.7z"/>
	<path class="st16" d="M429.2,359.6c0.3-0.2,0.6-0.3,0.9-0.5C429.8,359.3,429.5,359.4,429.2,359.6z"/>
	<path class="st25" d="M268.5,194.1c0.3,0.5,0.5,1.1,0.8,1.6c0,8.2,0,16.3-0.1,24.5c-1-0.3-2.1-0.5-3-1
		c-8.9-5.3-17.8-10.6-26.8-15.9c-1.4-0.8-3-1.3-4.5-1.9c-5-2.7-5.1-3-1.9-7.8c1.7-2.4,3.6-4.7,5.1-7.2c1.3-2,2.2-4.2,3.3-6.3
		c4.8,2.7,9.5,5.6,14.3,8.2C260,190.5,264.3,192.2,268.5,194.1z"/>
	<path class="st7" d="M169.7,189.1c2.3-1.1,4.5-2.1,6.8-3.2c3.2-1.6,6.4-3.3,9.5-5c2.9,4.5,5.9,9,8.8,13.5c2,3.1,1.3,5.7-1.8,7.1
		c-0.5,0.2-0.9,0.4-1.4,0.6c-4.1,2.3-8.1,4.7-12.2,6.9c-3.1,1.7-6.4,3-9.7,4.5c0-0.6,0-1.1,0-1.7
		C169.7,204.4,169.7,196.8,169.7,189.1z"/>
	<path class="st9" d="M285.8,227.5c-0.3,0.6-0.9,1.1-0.9,1.7c-0.1,12.2,0,24.5-0.1,36.7c-1.1-0.4-2.3-0.7-3.3-1.2
		c-4.6-2.3-9.1-4.6-13.7-7c-2.8-3-2.5-5.7,0.6-8.3c0.4-0.3,0.5-0.9,0.7-1.4c0.3-0.6,0.6-1.2,1-1.7c4.1-5.7,8.1-11.4,12.2-16.9
		C283.1,228.4,284.6,228.1,285.8,227.5z"/>
	<path class="st14" d="M241.6,180.2c-1.1,2.1-2,4.3-3.3,6.3c-1.6,2.5-3.5,4.7-5.1,7.2c-3.2,4.7-3.1,5,1.9,7.8
		c-2.7,4.4-5.5,8.8-8.2,13.1c-0.5-0.1-1-0.3-1.6-0.4c0-12.4,0-24.8,0-37.2c2.3-1.1,4.5-2.2,6.8-3.2c1.8-0.7,3.6-1.1,5.5-1.7
		c-2.5,3.5-1.5,5.7,2.4,7C240.5,179.3,241,179.8,241.6,180.2z"/>
	<path class="st16" d="M261.3,247.3c0.2-0.9,0.5-1.8,0.7-2.7c2.4,1.2,4.8,2.3,7.2,3.5c-0.2,0.5-0.3,1.1-0.7,1.4
		c-3.1,2.6-3.4,5.3-0.6,8.3c-1.9,2.7-3.9,5.4-5.8,8.1C261.8,259.6,261.5,253.5,261.3,247.3z"/>
	<path class="st16" d="M214.1,216c-0.1-0.8-0.1-1.5-0.2-2.3c0.3-0.1,0.5,0,0.7,0.2C214.5,214.6,214.3,215.3,214.1,216z"/>
	<path class="st25" d="M385.2,241.4c2.2-2.6,4.3-5.1,6.6-7.8c-1.2-1.6-2.2-3-3.3-4.4c1.2,0.3,2.7,0.2,3.4,1
		c3.5,3.6,7.9,5.5,12.2,7.8c6.8,3.7,13.5,7.7,20.3,11.6c0,9.8,0,19.6,0,29.4c-1.8-0.8-3.7-1.3-5.3-2.3
		c-10.3-5.7-20.6-11.5-30.9-17.3c-1.8-1-3.6-2.2-5.4-3.3c-5.6-3.1-5.6-3.4-2.1-8.2C382.2,245.8,383.7,243.6,385.2,241.4z"/>
	<path class="st11" d="M385.2,241.4c-1.5,2.2-3,4.4-4.5,6.5c-3.5,4.9-3.5,5.1,2.1,8.2c-0.4,5.3-2.3,9.7-7.3,12.2
		c-2.4,0.6-4.9,1.1-7.3,1.7c-0.3-4.8-0.6-9.6-0.8-14.3c-0.1-2,0-4,0.1-6c3.4-1.7,6.8-3.4,10.2-5
		C380.1,243.4,382.6,242.5,385.2,241.4z"/>
	<path class="st8" d="M367.4,295.3c-0.6-0.5-1.3-1.1-1.9-1.6c2.2,0.1,2.7-1.2,2.6-3.1c-0.1-2.7,0-5.3,0-8c0.3-0.3,0.7-0.6,1-0.9
		c3.5,2.4,7,4.7,10.5,7.1c-1.7,1.1-3.5,2.2-5.2,3.3C372,293.2,369.7,294.3,367.4,295.3z"/>
	<path class="st14" d="M368.1,270c2.4-0.6,4.9-1.1,7.3-1.7c-2.1,3.5-4.1,6.9-6.2,10.4c-0.4-0.1-0.8-0.3-1.2-0.4c0-2.5,0-5,0-7.5
		C368.1,270.5,368.1,270.2,368.1,270z"/>
	<path class="st5" d="M224.4,96.1c0.3,0,0.5,0,0.8,0c0,0.3,0,0.6,0,0.9C224.9,96.6,224.7,96.4,224.4,96.1z"/>
	<path class="st6" d="M241.6,180.2c-0.5-0.4-1.1-0.9-1.7-1.1c-3.9-1.3-4.9-3.6-2.4-7c0,0,0,0,0,0c0.3-0.6,0.6-1.1,0.9-1.7
		c3.5-4.6,7-9.3,10.6-13.9c5.3,2.8,10.6,5.6,16,8.3c1.4,0.7,2.9,1,4.3,1.5c0,0.3,0,0.6,0.1,0.9c-0.3,9-0.5,18-0.8,27
		c-4.2-1.9-8.5-3.6-12.6-5.7C251,185.8,246.4,182.9,241.6,180.2z"/>
	<path class="st9" d="M269.3,166.3c-1.5-0.5-3-0.8-4.3-1.5c-5.4-2.7-10.6-5.5-16-8.3c-1.3-1.1-2.6-2.2-4.2-3.5
		c7.1-10.3,14.2-20.5,21.3-30.8c2.9-0.3,2.4,1.9,2.4,3.5c0,9.2-0.1,18.4,0.1,27.6C268.6,157.7,269,162,269.3,166.3z"/>
	<path class="st14" d="M238.4,170.4c-0.3,0.6-0.6,1.1-0.9,1.7C237.8,171.5,238.1,170.9,238.4,170.4z"/>
	<path class="st11" d="M191.6,202.2c3.3,4.9,6.7,9.8,9.9,14.5c-1.5,1.6-2.7,2.9-4,4.3c-8,4.2-16.1,8.5-24.1,12.7
		c-1.1,0.6-2.4,0.8-3.6,1.3c0-7.1,0-14.2,0-21.2c3.2-1.5,6.5-2.9,9.7-4.5C183.5,206.9,187.5,204.5,191.6,202.2z"/>
	<path class="st10" d="M75,269.1c0.3,0.3,0.5,0.5,0.8,0.8C75.6,269.7,75.3,269.4,75,269.1z"/>
	<path class="st25" d="M285.6,290.4c0,7.1,0,14.1,0,21.2c-4.1-1.8-8.3-3.5-12.3-5.5c-4.8-2.4-9.4-5-14.1-7.6c-1-0.5-1.7-1.5-2.5-2.3
		c-1.5-0.7-3.1-1.5-5.1-2.4c3.7-5.2,7-10,10.4-14.8c4.2,2.1,8.3,4.2,12.5,6.2c3.4,1.6,6.9,3,10.3,4.4
		C285.1,289.8,285.4,290.1,285.6,290.4z"/>
	<path class="st6" d="M284.8,289.6c-3.4-1.5-6.9-2.8-10.3-4.4c-4.2-2-8.3-4.1-12.5-6.2c-1.3-1.1-2.9-2-4-3.3
		c-0.6-0.8-0.6-2.1-0.8-3.2c1.6-2.2,3.2-4.5,4.8-6.7c1.9-2.7,3.9-5.4,5.8-8.1c4.6,2.3,9.1,4.7,13.7,7c1,0.5,2.2,0.8,3.3,1.2
		c0.3,0,0.5,0,0.8,0C285.4,273.8,285.1,281.7,284.8,289.6z"/>
	<path class="st23" d="M119.1,323c1.6,1.9,3.3,3.8,4.9,5.7c-1.5,0.2-3.1,0.8-4.6,0.7c-3.9-0.3-7.8-0.7-11.6-1.6
		c-4-0.9-7,0.5-9.9,2.9c-0.7,0.6-1.6,1.2-2.4,1.2c-1.5-0.1-3-0.6-4.5-1c0.7-1.5,1.1-3.4,2.2-4.3c3.2-2.5,5.9-5.6,10.6-6.2
		C109.4,319.6,114.5,319.4,119.1,323z"/>
	<path class="st26" d="M279.1,353.3c0,3.2,0,6.5,0,9.7c0,5.7,0.6,6.3,6.6,6.4c5.7-0.3,6.1-0.6,6.2-6.3c0-0.9,0.2-1.9,0.3-2.8
		c6.5,3.6,13,7.2,19.5,10.7c-5,2.6-10,5.5-15.2,7.8c-2,0.9-5,1.2-6.8,0.3c-9-4.5-17.7-9.4-26.5-14.3c-0.8-0.4-1.4-1.3-2.1-1.9
		C267.1,359.8,273.1,356.6,279.1,353.3z"/>
	<path class="st15" d="M311.7,371.2c-6.5-3.6-13-7.2-19.5-10.7c0-2.9,0.1-5.9,0.1-8.8c8.9,4.7,17.9,9.4,27.6,14.6
		C316.6,368.2,314.1,369.7,311.7,371.2z"/>
	<path class="st10" d="M279.1,353.3c-6,3.2-12,6.5-18,9.7c-2.9-1.3-5.8-2.7-9.6-4.4c9.8-5.1,18.6-9.7,27.4-14.4
		C279,347.3,279.1,350.3,279.1,353.3z"/>
	<path class="st0" d="M202.4,227.6c3.7-1.7,7.4-3.5,11.2-5.2c0,8.5,0.1,17,0.1,25.5c-6.9-0.3-13.8-0.6-20.8-0.9
		c5.1-3.3,10.2-6.5,15.6-10C206.5,233.8,204.4,230.7,202.4,227.6z"/>
	<path class="st21" d="M172.9,259.3c0.6,0.9,1.7,1.8,1.7,2.7c0.1,8.8,0,17.6,0.1,26.4c0,3.7-2.5,3.6-5,3.5c0-10.8,0-21.6,0-32.5
		C170.7,259.4,171.8,259.3,172.9,259.3z"/>
	<path class="st0" d="M262,265.8c-1.6,2.2-3.2,4.5-4.8,6.7c-6.3-5.2-12.4-10.6-20.5-13.2c0-8.5,0.1-17.1,0.1-25.6
		c8.1,4.5,16.3,9,24.4,13.5C261.5,253.5,261.8,259.6,262,265.8z"/>
</g>
</svg>
